<svg width="172" height="193" viewBox="0 0 172 193" fill="none" xmlns="http://www.w3.org/2000/svg">
<path d="M169.83 2.67887C168.302 0.973403 166.122 0 163.837 0H8.04465C5.75997 0 3.57988 0.973403 2.0514 2.67887C0.522914 4.38434 -0.201104 6.66098 0.0482799 8.92957L17.7626 168.399C18.1165 171.641 20.4093 174.352 23.5467 175.245L83.7206 192.436C84.4446 192.645 85.1928 192.75 85.9329 192.75C86.673 192.75 87.4211 192.645 88.1451 192.436L148.319 175.245C151.456 174.352 153.741 171.641 154.103 168.399L171.826 8.92957C172.083 6.66098 171.359 4.38434 169.83 2.67887ZM130.315 81.0419L126.727 139.647L86.1983 152.897L45.6694 139.647L44.1329 111.62H64.6468L65.1616 124.362L86.1983 131.498L107.235 124.362L108.772 101.435H63.6251L62.6034 81.0499H109.801L111.338 60.6648H40.537L39.0004 40.2716H132.881L130.315 81.0419Z" fill="#DDA448"/>
</svg>
