<svg width="28" height="28" viewBox="0 0 28 28" fill="none" xmlns="http://www.w3.org/2000/svg">
<path d="M9.5 26.5C9.5 26.5 8.5 22.5 10.5 20.5C10.5 20.5 6.5 20.5 3.5 17.5C0.5 14.5 1.5 8.5 3.5 6.5C2.5 3.5 4.5 1.5 4.5 1.5C4.5 1.5 7.5 1.5 9.5 3.5C11.5 2.5 16.5 2.5 18.5 3.5C20.5 1.5 23.5 1.5 23.5 1.5C23.5 1.5 25.5 3.5 24.5 6.5C26.5 8.5 27.5 14.5 24.5 17.5C21.5 20.5 17.5 20.5 17.5 20.5C19.5 22.5 18.5 26.5 18.5 26.5M8.5 25.5C5.5 26.5 2.5 24.5 1.5 23.5" stroke="#F5EDF0" stroke-width="3" stroke-linecap="round" stroke-linejoin="round"/>
</svg>
