<svg width="173" height="194" viewBox="0 0 173 194" fill="none" xmlns="http://www.w3.org/2000/svg">
<path d="M170.389 3.67368C168.864 1.96817 166.689 0.994751 164.409 0.994751H8.96115C6.68153 0.994751 4.50625 1.96817 2.98115 3.67368C1.45605 5.37918 0.733637 7.65586 0.982469 9.9245L18.6576 169.397C19.0108 172.639 21.2984 175.35 24.4289 176.243L84.4697 193.435C85.1921 193.644 85.9386 193.749 86.6771 193.749C87.4155 193.749 88.162 193.644 88.8845 193.435L148.925 176.243C152.056 175.35 154.335 172.639 154.697 169.397L172.38 9.9245C172.637 7.65586 171.914 5.37918 170.389 3.67368ZM131.868 60.7678H60.1885L61.8902 81.2177H130.142L125.021 141.634L86.7092 153.846L86.3319 153.726L48.4452 141.618L46.3743 117.001H64.9323L65.743 126.566L86.9098 131.24L107.707 126.558L109.915 100.71H44.9776L39.9528 41.2189H133.538L131.868 60.7678Z" fill="#DDA448"/>
</svg>
