<svg width="195" height="193" viewBox="0 0 195 193" fill="none" xmlns="http://www.w3.org/2000/svg">
<path d="M176.444 0H17.6444C7.89587 0 0 7.84142 0 17.5227V175.227C0 184.909 7.89587 192.75 17.6444 192.75H176.444C186.193 192.75 194.089 184.909 194.089 175.227V17.5227C194.089 7.84142 186.193 0 176.444 0ZM97.0443 143.511C97.0443 159.08 87.4281 167.806 71.4599 167.806C55.6858 167.806 45.6373 158.651 45.6373 143.844H62.7259C62.77 149.337 66.0695 152.807 71.1687 152.807C76.4091 152.807 79.2234 149.53 79.2234 143.362V96.3575H97.0443V143.511ZM145.399 167.806C127.675 167.806 116.524 159.518 116.224 146.113H133.215C133.648 151.177 138.738 154.402 146.122 154.402C152.774 154.402 157.344 151.221 157.344 146.639C157.344 142.784 154.283 140.707 146.272 139.122L137.053 137.291C124.234 134.881 117.635 127.942 117.635 116.999C117.635 103.402 128.61 94.4826 145.496 94.4826C161.905 94.4826 173.259 103.305 173.55 116.176H157.097C156.709 111.261 151.998 107.835 145.725 107.835C139.47 107.835 135.35 110.779 135.35 115.405C135.35 119.216 138.456 121.433 145.831 122.878L154.847 124.613C168.689 127.268 174.9 133.479 174.9 144.519C174.909 159.036 163.749 167.806 145.399 167.806Z" fill="#DDA448"/>
</svg>
