<svg width="598" height="428" viewBox="0 0 598 428" fill="none" xmlns="http://www.w3.org/2000/svg">
<path d="M43 0.666626H256.333C267.649 0.666626 278.502 5.16185 286.503 13.1634C294.505 21.165 299 32.0174 299 43.3333C299 54.6492 294.505 65.5016 286.503 73.5032C278.502 81.5047 267.649 86 256.333 86H43C31.6841 86 20.8316 81.5047 12.8301 73.5032C4.82854 65.5016 0.333313 54.6492 0.333313 43.3333C0.333313 32.0174 4.82854 21.165 12.8301 13.1634C20.8316 5.16185 31.6841 0.666626 43 0.666626ZM341.667 342H555C566.316 342 577.168 346.495 585.17 354.497C593.171 362.498 597.667 373.351 597.667 384.667C597.667 395.983 593.171 406.835 585.17 414.836C577.168 422.838 566.316 427.333 555 427.333H341.667C330.351 427.333 319.498 422.838 311.497 414.836C303.495 406.835 299 395.983 299 384.667C299 373.351 303.495 362.498 311.497 354.497C319.498 346.495 330.351 342 341.667 342ZM43 171.333H555C566.316 171.333 577.168 175.829 585.17 183.83C593.171 191.832 597.667 202.684 597.667 214C597.667 225.316 593.171 236.168 585.17 244.17C577.168 252.171 566.316 256.667 555 256.667H43C31.6841 256.667 20.8316 252.171 12.8301 244.17C4.82854 236.168 0.333313 225.316 0.333313 214C0.333313 202.684 4.82854 191.832 12.8301 183.83C20.8316 175.829 31.6841 171.333 43 171.333Z" fill="#3E92CC"/>
</svg>
