<svg width="194" height="190" viewBox="0 0 194 190" fill="none" xmlns="http://www.w3.org/2000/svg">
<path d="M178.655 147.048C168.072 146.76 159.989 147.743 153.079 150.651C151.116 151.478 147.982 151.501 147.661 153.957C148.741 155.085 148.909 156.772 149.766 158.161C151.416 160.824 154.201 164.399 156.687 166.271C159.405 168.318 162.204 170.506 165.115 172.278C170.294 175.429 176.075 177.23 181.061 180.388C184.001 182.25 186.92 184.595 189.787 186.695C191.206 187.734 192.157 189.349 194 190V189.701C193.032 188.47 192.782 186.779 191.893 185.494L187.981 181.588C184.156 176.52 179.3 172.068 174.138 168.372C170.022 165.423 160.811 161.438 159.095 156.658L158.794 156.358C161.712 156.029 165.128 154.976 167.822 154.254C172.346 153.044 176.39 153.356 181.061 152.152L187.379 150.35V149.149C185.018 146.73 183.334 143.528 180.761 141.339C174.021 135.612 166.668 129.89 159.096 125.118C154.895 122.473 149.706 120.754 145.254 118.511C143.756 117.755 141.125 117.362 140.137 116.106C137.797 113.132 136.525 109.36 134.722 105.895C130.946 98.6331 127.237 90.7034 123.89 83.063C121.608 77.8535 120.116 72.7179 117.27 68.0441C103.606 45.6188 88.9 32.0854 66.1176 18.7814C61.2691 15.9519 55.432 14.8358 49.2633 13.3733C45.9554 13.1747 42.6443 12.973 39.3349 12.7714C37.3131 11.9308 35.2127 9.46306 33.3173 8.26536C25.77 3.50535 6.40967 -6.84751 0.820871 6.76439C-2.70914 15.3561 6.09661 23.7369 9.24417 28.092C11.4556 31.1433 14.2855 34.5686 15.8647 38.0031C16.9041 40.2615 17.083 42.526 17.9728 44.9137C20.1581 50.7975 22.0626 57.1986 24.8925 62.6344C26.3221 65.387 27.8982 68.2842 29.7071 70.7443C30.8144 72.2545 32.7159 72.9195 33.0151 75.2503C31.1583 77.8458 31.0519 81.8761 30.0079 85.1644C25.3043 99.9663 27.0793 118.366 33.9203 129.321C36.0177 132.686 40.9634 139.898 47.7612 137.13C53.7078 134.713 52.38 127.219 54.081 120.609C54.465 119.111 54.2291 118.009 54.9832 117.005V117.305L60.4008 128.118C64.4104 134.564 71.5229 141.299 77.5528 145.844C80.6787 148.201 83.14 152.274 87.182 153.653V153.352H86.8813C86.0979 152.134 84.8719 151.629 83.8725 150.65C81.5177 148.345 78.8991 145.48 76.9529 142.84C71.4689 135.409 66.6234 127.276 62.2082 118.811C60.0986 114.767 58.2649 110.308 56.4883 106.193C55.8036 104.608 55.8129 102.208 54.3848 101.387C52.4371 104.401 49.5702 106.84 48.0651 110.399C45.6577 116.089 45.3478 123.029 44.4548 130.224C43.9274 130.412 44.1618 130.283 43.8519 130.523C39.6603 129.515 38.189 125.209 36.6299 121.513C32.6912 112.168 31.9587 97.1245 35.4255 86.3683C36.323 83.5834 40.3758 74.8208 38.735 72.2483C37.9515 69.6836 35.3669 68.1996 33.9219 66.2398C32.1314 63.8167 30.3456 60.627 29.1041 57.8282C25.881 50.5451 24.3759 42.3659 20.9816 35.0011C19.3577 31.4804 16.6142 27.9165 14.3611 24.7884C11.8674 21.32 9.07299 18.766 7.13912 14.5741C6.45131 13.0839 5.5183 10.6977 6.53613 9.16594C6.85998 8.13297 7.31955 7.70192 8.342 7.36478C10.0877 6.02083 14.9486 7.81122 16.7653 8.56401C21.5907 10.5653 25.6189 12.4712 29.7071 15.1745C31.6672 16.4738 33.6535 18.9846 36.0254 19.6804H38.7334C42.9697 20.6518 47.715 19.9806 51.6737 21.1814C58.669 23.3028 64.9379 26.6049 70.63 30.1934C87.9732 41.1266 102.155 56.6875 111.855 75.2518C113.416 78.2415 114.091 81.0925 115.465 84.2638C118.238 90.6572 121.731 97.2353 124.49 103.489C127.244 109.726 129.928 116.021 133.82 121.212C135.867 123.94 143.769 125.404 147.362 126.921C149.879 127.981 154.004 129.09 156.39 130.523C160.944 133.266 165.357 136.532 169.631 139.537C171.764 141.038 178.329 144.333 178.655 147.048ZM44.1495 32.6027C41.9427 32.5611 40.382 32.8428 38.7319 33.2015V33.5017H39.0326C40.0859 35.66 41.9442 37.0517 43.2442 38.9098C44.2467 41.0143 45.2506 43.1156 46.2546 45.217L46.5537 44.9199C48.4182 43.6067 49.271 41.5115 49.2602 38.3094C48.5138 37.5258 48.4043 36.5437 47.7566 35.6077C46.8992 34.3592 45.2352 33.6495 44.1495 32.6027Z" fill="#DDA448"/>
</svg>
