<svg width="120" height="42" viewBox="0 0 120 42" fill="none" xmlns="http://www.w3.org/2000/svg">
<line x1="2.625" y1="11.8126" x2="66.9375" y2="11.8126" stroke="white" stroke-width="2.625"/>
<path d="M78.5256 18L74.7456 5.00626H77.6397L80.199 15.7359L82.7978 5.00626H85.3965L88.0347 15.7359L90.5744 5.00626H93.3503L89.5703 18H86.5187L84.7075 10.9125L84.0972 7.84125H84.0578L83.4475 10.9125L81.6559 18H78.5256ZM95.4446 18V5.00626H105.19V7.19157H98.1614V10.4203H103.694V12.5072H98.1614V15.8147H105.465V18H95.4446ZM107.903 18V5.00626H113.593C115.168 5.00626 116.329 5.31469 117.077 5.93157C117.826 6.54844 118.2 7.42125 118.2 8.55C118.2 9.24563 117.99 9.8625 117.57 10.4006C117.15 10.9388 116.533 11.28 115.719 11.4244V11.4441C116.625 11.5753 117.32 11.9166 117.806 12.4678C118.291 13.0191 118.534 13.6753 118.534 14.4366C118.534 15.5522 118.127 16.425 117.314 17.055C116.513 17.685 115.338 18 113.79 18H107.903ZM110.541 15.9525H113.553C114.288 15.9525 114.833 15.8016 115.187 15.4997C115.542 15.1978 115.719 14.7778 115.719 14.2397C115.719 13.6884 115.542 13.2684 115.187 12.9797C114.833 12.6909 114.288 12.5466 113.553 12.5466H110.541V15.9525ZM110.541 10.4597H113.238C114.669 10.4597 115.384 9.90188 115.384 8.78625C115.384 7.67063 114.669 7.11282 113.238 7.11282H110.541V10.4597ZM9.35253 28.0063C11.3869 28.0063 12.9619 28.5706 14.0775 29.6994C15.1932 30.815 15.751 32.4163 15.751 34.5031C15.751 36.5769 15.1932 38.1781 14.0775 39.3069C12.9619 40.4356 11.3869 41 9.35253 41H4.33222V28.0063H9.35253ZM9.21472 38.8344C10.4485 38.8344 11.3738 38.4669 11.9907 37.7319C12.6207 36.9838 12.9357 35.9075 12.9357 34.5031C12.9357 33.0988 12.6207 32.0291 11.9907 31.2941C11.3738 30.5459 10.4485 30.1719 9.21472 30.1719H7.0491V38.8344H9.21472ZM18.4826 41V28.0063H28.2279V30.1916H21.1995V33.4203H26.7317V35.5072H21.1995V38.8147H28.5035V41H18.4826ZM42.163 28.0063L37.438 41H34.2683L29.5236 28.0063H32.398L35.1345 36.275L35.8827 38.8344L36.6111 36.2947L39.3673 28.0063H42.163ZM44.1302 41V28.0063H53.8755V30.1916H46.8471V33.4203H52.3792V35.5072H46.8471V38.8147H54.1511V41H44.1302ZM59.3055 38.8147H66.1568V41H56.5887V28.0063H59.3055V38.8147ZM73.5814 27.8094C74.8677 27.8094 75.9767 28.0784 76.9086 28.6166C77.8405 29.1547 78.5558 29.9225 79.0546 30.92C79.5664 31.9175 79.8224 33.1119 79.8224 34.5031C79.8224 35.8944 79.5664 37.0888 79.0546 38.0863C78.5558 39.0838 77.8405 39.8516 76.9086 40.3897C75.9767 40.9278 74.8677 41.1969 73.5814 41.1969C72.2952 41.1969 71.1796 40.9278 70.2346 40.3897C69.3027 39.8516 68.5808 39.0838 68.0689 38.0863C67.5702 37.0888 67.3208 35.8944 67.3208 34.5031C67.3208 33.1119 67.5702 31.9175 68.0689 30.92C68.5808 29.9225 69.3027 29.1547 70.2346 28.6166C71.1796 28.0784 72.2952 27.8094 73.5814 27.8094ZM73.5814 30.0341C72.8464 30.0341 72.223 30.2047 71.7111 30.5459C71.1992 30.8872 70.8055 31.3925 70.5299 32.0619C70.2674 32.7181 70.1361 33.5319 70.1361 34.5031C70.1361 35.4613 70.2674 36.275 70.5299 36.9444C70.8055 37.6138 71.1992 38.1191 71.7111 38.4603C72.223 38.8016 72.8464 38.9722 73.5814 38.9722C74.3033 38.9722 74.9202 38.8016 75.4321 38.4603C75.9439 38.1191 76.3311 37.6138 76.5936 36.9444C76.8692 36.275 77.0071 35.4613 77.0071 34.5031C77.0071 33.5319 76.8692 32.7181 76.5936 32.0619C76.3311 31.3925 75.9439 30.8872 75.4321 30.5459C74.9202 30.2047 74.3033 30.0341 73.5814 30.0341ZM88.0165 28.0063C89.014 28.0063 89.8671 28.1769 90.5759 28.5181C91.2846 28.8463 91.8293 29.3253 92.21 29.9553C92.6037 30.5722 92.8006 31.3203 92.8006 32.1997C92.8006 33.0791 92.6037 33.8338 92.21 34.4638C91.8293 35.0806 91.2846 35.5597 90.5759 35.9009C89.8671 36.2291 89.014 36.3931 88.0165 36.3931H85.28V41H82.5631V28.0063H88.0165ZM87.6031 34.2472C88.4168 34.2472 89.0271 34.0766 89.434 33.7353C89.8409 33.3809 90.0443 32.8691 90.0443 32.1997C90.0443 31.5172 89.8409 31.0053 89.434 30.6641C89.0271 30.3228 88.4168 30.1522 87.6031 30.1522H85.28V34.2472H87.6031ZM95.2907 41V28.0063H105.036V30.1916H98.0076V33.4203H103.54V35.5072H98.0076V38.8147H105.312V41H95.2907ZM113.478 28.0063C114.948 28.0063 116.103 28.3606 116.943 29.0694C117.783 29.7781 118.203 30.7297 118.203 31.9241C118.203 33.1972 117.783 34.175 116.943 34.8575C116.103 35.5269 114.955 35.8616 113.498 35.8616L113.222 36.0191H110.427V41H107.749V28.0063H113.478ZM113.163 33.9519C113.925 33.9519 114.489 33.8009 114.856 33.4991C115.237 33.1841 115.427 32.705 115.427 32.0619C115.427 31.4188 115.237 30.9463 114.856 30.6444C114.489 30.3294 113.925 30.1719 113.163 30.1719H110.427V33.9519H113.163ZM114.758 34.5228L118.971 41H115.92L112.435 35.3103L114.758 34.5228Z" fill="white"/>
</svg>
